<svg xmlns="http://www.w3.org/2000/svg" width="512" height="512" viewBox="0 0 512 512" version="1.1">
	<path d="M 236 0.600 C 215.776 2.998, 205.370 4.736, 193.500 7.701 C 102.264 30.488, 30.488 102.264, 7.701 193.500 C 2.158 215.694, 0.506 230.045, 0.506 256 C 0.506 281.955, 2.158 296.306, 7.701 318.500 C 30.488 409.736, 102.264 481.512, 193.500 504.299 C 215.694 509.842, 230.045 511.494, 256 511.494 C 281.955 511.494, 296.306 509.842, 318.500 504.299 C 408.655 481.782, 479.907 411.389, 503.563 321.468 C 507.121 307.941, 510.987 284.974, 510.995 277.309 C 510.998 275.004, 511.450 272.840, 512 272.500 C 512.603 272.127, 513 265.137, 513 254.882 C 513 243.803, 512.652 238.097, 512 238.500 C 511.393 238.875, 510.998 237.426, 510.995 234.809 C 510.987 227.039, 507.144 204.145, 503.563 190.532 C 480.190 101.687, 410.313 31.810, 321.468 8.437 C 300.777 2.994, 284.721 0.910, 260.500 0.522 C 248.950 0.337, 237.925 0.372, 236 0.600 M 0.411 256 C 0.411 265.625, 0.561 269.563, 0.745 264.750 C 0.928 259.938, 0.928 252.062, 0.745 247.250 C 0.561 242.438, 0.411 246.375, 0.411 256" stroke="none" fill="black" fill-rule="evenodd"/>
</svg>